<svg width="20" height="21" viewBox="0 0 20 21" fill="none" xmlns="http://www.w3.org/2000/svg">
<path d="M5 12C5.41667 12 5.77083 11.8542 6.0625 11.5625C6.35417 11.2708 6.5 10.9167 6.5 10.5C6.5 10.0833 6.35417 9.72917 6.0625 9.4375C5.77083 9.14583 5.41667 9 5 9C4.58333 9 4.22917 9.14583 3.9375 9.4375C3.64583 9.72917 3.5 10.0833 3.5 10.5C3.5 10.9167 3.64583 11.2708 3.9375 11.5625C4.22917 11.8542 4.58333 12 5 12ZM10 12C10.4167 12 10.7708 11.8542 11.0625 11.5625C11.3542 11.2708 11.5 10.9167 11.5 10.5C11.5 10.0833 11.3542 9.72917 11.0625 9.4375C10.7708 9.14583 10.4167 9 10 9C9.58333 9 9.22917 9.14583 8.9375 9.4375C8.64583 9.72917 8.5 10.0833 8.5 10.5C8.5 10.9167 8.64583 11.2708 8.9375 11.5625C9.22917 11.8542 9.58333 12 10 12ZM15 12C15.4167 12 15.7708 11.8542 16.0625 11.5625C16.3542 11.2708 16.5 10.9167 16.5 10.5C16.5 10.0833 16.3542 9.72917 16.0625 9.4375C15.7708 9.14583 15.4167 9 15 9C14.5833 9 14.2292 9.14583 13.9375 9.4375C13.6458 9.72917 13.5 10.0833 13.5 10.5C13.5 10.9167 13.6458 11.2708 13.9375 11.5625C14.2292 11.8542 14.5833 12 15 12ZM10 20.5C8.61667 20.5 7.31667 20.2375 6.1 19.7125C4.88333 19.1875 3.825 18.475 2.925 17.575C2.025 16.675 1.3125 15.6167 0.7875 14.4C0.2625 13.1833 0 11.8833 0 10.5C0 9.11667 0.2625 7.81667 0.7875 6.6C1.3125 5.38333 2.025 4.325 2.925 3.425C3.825 2.525 4.88333 1.8125 6.1 1.2875C7.31667 0.7625 8.61667 0.5 10 0.5C11.3833 0.5 12.6833 0.7625 13.9 1.2875C15.1167 1.8125 16.175 2.525 17.075 3.425C17.975 4.325 18.6875 5.38333 19.2125 6.6C19.7375 7.81667 20 9.11667 20 10.5C20 11.8833 19.7375 13.1833 19.2125 14.4C18.6875 15.6167 17.975 16.675 17.075 17.575C16.175 18.475 15.1167 19.1875 13.9 19.7125C12.6833 20.2375 11.3833 20.5 10 20.5ZM10 18.5C12.2333 18.5 14.125 17.725 15.675 16.175C17.225 14.625 18 12.7333 18 10.5C18 8.26667 17.225 6.375 15.675 4.825C14.125 3.275 12.2333 2.5 10 2.5C7.76667 2.5 5.875 3.275 4.325 4.825C2.775 6.375 2 8.26667 2 10.5C2 12.7333 2.775 14.625 4.325 16.175C5.875 17.725 7.76667 18.5 10 18.5Z" fill="#585858"/>
</svg>
